<svg xmlns="http://www.w3.org/2000/svg" width="1014" height="1107" fill="none"><path fill="#FFFDFA" d="M512.609 1065.5c-310-68.5-123.754-418.333-56.92-541.5h381.92l139.212 374.8c20.815 56.041-2.365 119.71-55.854 146.4-127.093 63.44-230.984 89.87-408.358 20.3Z" opacity=".6"/><path fill="#FCF7EF" d="M363.117 593.613c169.982-103.361 290.297-96.317 366.488-56.427 53.622 28.074 132.024 28.938 132.941-31.582.91-60.141-22.31-131.281-97.895-199.078-143.804-128.989-303.721-30.727-365.704 34.528-126.794 154.024-311.472 420.17-35.83 252.559Z"/><path fill="#FEFBF8" d="M156.552 398.738c124.263-65.896 255.009 5.367 304.849 49.235l2.427 3.698a340 340 0 0 1 55.277 204.535l-1.749 33.043c-18.04 67.376-126.159 189.895-289.56 151.44C64.394 802.234 7.848 666.771 0 603.846c.408-40.913 32.289-139.212 156.552-205.108Z"/><path fill="#F8F3EC" d="M201.046 407c141.835-51.817 82.052-235.87 27.357-335.647-5.948-10.849-15.062-19.505-25.891-25.488l-6.365-3.517c-47.756-26.385-105.665-26.617-153.63-.614l-3.789 2.054c-12.766 6.92-20.847 20.155-20.602 34.674C20.559 222.719 59.054 458.874 201.046 407Z"/></svg>