<svg xmlns="http://www.w3.org/2000/svg" width="1344" height="808" fill="none"><path fill="#FEFBF8" d="M156.552 26.738c124.263-65.896 255.009 5.367 304.849 49.235l2.427 3.698a339.998 339.998 0 0 1 55.277 204.535l-1.749 33.043c-18.04 67.376-126.159 189.895-289.56 151.44C64.394 430.234 7.848 294.771 0 231.846.408 190.933 32.289 92.634 156.552 26.738ZM1216.97 786.318c-100.83 53.436-206.92-4.353-247.364-39.927a286.552 286.552 0 0 1-46.632-172.46l1.229-23.196c14.638-54.637 102.367-153.99 234.957-122.806 132.59 31.184 178.47 141.034 184.84 192.061-.33 33.178-26.2 112.891-127.03 166.328Z"/></svg>