<svg xmlns="http://www.w3.org/2000/svg" width="263" height="244" fill="none"><path stroke="#FBF8F3" d="M111.941 41.15c30.809-11.213 60.87-15.336 84.555-12.957 23.724 2.383 40.871 11.26 46.183 25.855 5.312 14.594-2.117 32.416-18.759 49.491-16.614 17.047-42.293 33.212-73.102 44.425-30.81 11.214-60.871 15.337-84.556 12.958-23.724-2.382-40.87-11.26-46.183-25.855-5.312-14.594 2.117-32.416 18.759-49.491C55.452 68.529 81.13 52.364 111.94 41.15Z"/><path stroke="#FBF8F3" d="M111.941 65.15c30.809-11.213 60.87-15.336 84.555-12.957 23.724 2.383 40.871 11.26 46.183 25.855 5.312 14.594-2.117 32.416-18.759 49.491-16.614 17.047-42.293 33.212-73.102 44.425-30.81 11.214-60.871 15.337-84.556 12.958-23.724-2.382-40.87-11.26-46.183-25.855-5.312-14.594 2.117-32.416 18.759-49.491C55.452 92.529 81.13 76.364 111.94 65.151Z"/><path stroke="#FBF8F3" d="M111.941 95.15c30.809-11.213 60.87-15.336 84.555-12.957 23.724 2.383 40.871 11.26 46.183 25.855 5.312 14.594-2.117 32.416-18.759 49.491-16.614 17.047-42.293 33.212-73.102 44.425-30.81 11.214-60.871 15.337-84.556 12.958-23.724-2.382-40.87-11.26-46.183-25.855-5.312-14.594 2.117-32.416 18.759-49.491 16.614-17.047 42.293-33.212 73.103-44.425Z"/></svg>