<svg xmlns="http://www.w3.org/2000/svg" width="483" height="663" fill="none"><path class="union-path" fill="#222" fill-rule="evenodd" d="M242 1.5C110.061 1.5 3.04 108.188 2.502 240h28c.54-116.349 95.249-210.5 211.998-210.5S453.958 123.651 454.498 240h27C480.959 108.188 373.939 1.5 242 1.5ZM454.5 241h-.001l-.498 421h27l.498-421H454.5Zm-1.001-.502L453.001 662l-.001 1h29l.499-422h.001l-.001-.526.001-.474h-.002C481.959 107.635 374.491.5 242 .5 109.509.5 2.04 107.635 1.502 240l-.001.417L1.5 241 1 661.999.999 663H32L32 661.999 31.5 241m421.999-.502C453.228 124.474 358.865 30.5 242.5 30.5c-116.533 0-211 94.245-211 210.499m-1 .001h-28l-.499 420L2 662h29l-.001-1-.499-420Z" clip-rule="evenodd"/></svg>